<?xml version="1.0" encoding="UTF-8" standalone="no"?>
<svg width="24" height="24" viewBox="0 0 48 48" fill="none" xmlns="http://www.w3.org/2000/svg" stroke="currentColor"
     stroke-width="1" stroke-linecap="round" stroke-linejoin="round">
    <g clip-path="url(#clip0_0:230)">
        <path d="M47.769 36.359L43 30.637V10C43 9.20435 42.6839 8.44129 42.1213 7.87868C41.5587 7.31607 40.7956 7 40 7H8C7.20435 7 6.44129 7.31607 5.87868 7.87868C5.31607 8.44129 5 9.20435 5 10V30.637L0.231 36.359C0.0817843 36.5393 9.61684e-05 36.766 0 37L0 39C0 39.5304 0.210714 40.0391 0.585786 40.4142C0.960859 40.7893 1.46957 41 2 41H46C46.5304 41 47.0391 40.7893 47.4142 40.4142C47.7893 40.0391 48 39.5304 48 39V37C47.9999 36.766 47.9182 36.5393 47.769 36.359V36.359ZM7 10C7 9.73478 7.10536 9.48043 7.29289 9.29289C7.48043 9.10536 7.73478 9 8 9H40C40.2652 9 40.5196 9.10536 40.7071 9.29289C40.8946 9.48043 41 9.73478 41 10V30H7V10ZM46 39H2V37.362L6.469 32H41.531L46 37.362V39Z"
        />
    </g>
    <defs>
        <clipPath id="clip0_0:230">
            <rect width="48" height="48"/>
        </clipPath>
    </defs>
</svg>
